# xmcd
#
# Track frame offsets:
#	150
#	11014
#	26727
#	41325
#	54711
#	71517
#	90281
#	96374
#	112623
#	132418
#	146027
#	163593
#	187714
#	200229
#	215635
#	234691
#	254193
#	277484
#	285548
#
# Disc length: 4002 seconds
#
# Revision: 0
# Processed by: cddbd v1.5.2PL0 Copyright (c) Steve Scherf et al.
# Submitted via: EasyCDDAExtractor 16.0.1.1
#
DISCID=230fa013
DTITLE=Brian Burns - Border Radio
DYEAR=2006
DGENRE=Country
TTITLE0=Del Rio
TTITLE1=Border Blues
TTITLE2=The Prettiest Girls In Texas
TTITLE3=Never Goin' Back To Mexico
TTITLE4=Crying On The Shoulder Of The Road
TTITLE5=Bicycling In A Border Town
TTITLE6=Midnight In Manzanillo
TTITLE7=Dark Spanish Eyes
TTITLE8=Stealin'
TTITLE9=Rose Of The San Joaquin
TTITLE10=Rainin' In Juarez
TTITLE11=Down The Rio Grande
TTITLE12=The Pink Flamingo
TTITLE13=Lately I've Let Things Slide
TTITLE14=Border Radio
TTITLE15=He Never Came Back From Mexico
TTITLE16=Sagebrush Symphony
TTITLE17=Bonus Track Intro
TTITLE18=Pico De Gallo
EXTD=
EXTT0=
EXTT1=
EXTT2=
EXTT3=
EXTT4=
EXTT5=
EXTT6=
EXTT7=
EXTT8=
EXTT9=
EXTT10=
EXTT11=
EXTT12=
EXTT13=
EXTT14=
EXTT15=
EXTT16=
EXTT17=
EXTT18=
PLAYORDER=
